<svg xmlns="http://www.w3.org/2000/svg" viewBox="0 0 64 64" fill="none" stroke="currentColor" stroke-width="3" stroke-linecap="round" stroke-linejoin="round">
  <!-- Rays -->
  <line x1="32" y1="4" x2="32" y2="10"/>
  <line x1="11" y1="13" x2="15.5" y2="17.5"/>
  <line x1="53" y1="13" x2="48.5" y2="17.5"/>
  <line x1="4" y1="32" x2="10" y2="32"/>
  <line x1="60" y1="32" x2="54" y2="32"/>
  <!-- Bulb -->
  <path d="M22 38.5a14 14 0 1 1 20 0l-1.5 1.5A6 6 0 0 0 39 44v2a4 4 0 0 1-4 4h-6a4 4 0 0 1-4-4v-2a6 6 0 0 0-1.5-4z"/>
  <!-- Filament -->
  <path d="M27 30c1-3 3-4 5-4s4 1 5 4"/>
  <!-- Base lines -->
  <line x1="25" y1="50" x2="39" y2="50"/>
  <line x1="27" y1="54" x2="37" y2="54"/>
</svg>
